<?xml version="1.0" encoding="UTF-8"?>
<svg version="1.1" viewBox="0 0 2000 2000" width="1280" height="1280" xmlns="http://www.w3.org/2000/svg">
<path transform="translate(0)" d="m0 0h2e3v2e3h-2e3z" fill="#FEFEFE"/>
<path transform="translate(1460,836)" d="m0 0h22l16 4 10 5 9 7 3 1v-11l2-2h48l1 1 1 40v88l-1 19h-49l-1-1v-14l-5 3-11 8-16 7-4 1h-24l-16-4-13-7-12-11-7-8-8-14-4-11-2-10v-26l4-16 8-16 7-9 5-5 9-8 14-7z" fill="#1F84B8"/>
<path transform="translate(1121,836)" d="m0 0h22l16 4 10 5 10 7 2 1v-12l1-1h49l1 1v147h-50l-1-4 2-11-5 2-12 9-16 7-4 1h-24l-13-3-16-8-11-9-8-10-8-14-4-11-2-10v-24l3-15 5-12 6-10 11-13 13-9 12-5z" fill="#1F84B8"/>
<path transform="translate(454,851)" d="m0 0h6l2 2-1 11 6-2 3-2h7l1 5-4 5-14 11-3 7v5l2 1 6-5h7l1 5-7 8-10 7-3 3-2 18 1 7 1 1h6l11-7 4-3h2l3-17 2-9 3-2h5l2 2v7l-1 5 7-3 4-4 2-11 2-10 3-3h6l1 1v12h4l5-3h5l2 5-8 8v2l10 2 2 2-1 6-3 2h-10l-13-2-7 4-3 1 1 3 10 2 2 2v5l-3 2h-12l-14-1-10 7-7 6-1 5 1 3 2 1 15 2h11l12-9 4-2h5l3 5-10 10 12 1 11-6 10-6 4 1 1 6-7 7v3l10 2 1 5-4 4-11-1 1 4 5 6 1 4-4 3-5-1-11-14-3-3-8-3-5-1 3 7 2 3v5l-5 2-7-6-8-11-5-2-15-3h-8l-1 5 3 8 8 11 4 3 20 3 4 4-1 4-4 3-11-2 3 6v2l5 2 21 5 4 3-1 6-6 2-8-1 2 5 3 4v5l-5 2-6-4-2-2-4-1v7l-2 4h-7l-3-3 1-10 1-5v-10l-4-6-3-1-1 9-2 2h-6l-3-4 1-11 1-4v-10l-6-9-6-7-8-1-2 3-2 15v10l8 9 4 7v5l-3 2-5-1-7-6-2-1 1 14 11 16 1 5-5 3-5-2-5-6-3-1-1 11-1 1h-7l-1-1v-9l-1-3-4 1-5 3-5-1-1-5 4-6 12-8 4-10 1-4-7 3-4 2-5-2-1-6 8-7 9-6 3-5 3-17-1-5-3-2-7 1-7 6-8 6-3 10-2 12-4 4-5-3-1-1v-7l1-4-7 3-3 4-5 22-4 3-6-2 1-13-8 4-1 1h-5l-3-3 1-5 6-6v-2l-10-3-2-2 1-5 4-2 14 1 10 1 8-5v-2l-11-3-2-5 3-4 3-1h8l9 3h6l15-11 4-3v-5l-6-3-16-3-7 1-9 7-6 4h-6l-2-2v-5l5-6 2-1 1-3h-12l-11 8-7 4-6-1-1-1v-5l7-7v-2l-10-2-2-3 1-5 2-2 11-1-4-7v-5l4-3 4 1 9 11 5 7 13 4-2-5-4-4v-5l4-4h5l10 14 5 5 2 1 20 2 5-2-1-7-8-10-4-6-1-1-18-2-6-3-2-2 1-4 4-3h11l-4-6-6-4-17-3-5-4v-5l3-2 11-1v-3l-4-2-1-6 4-4 5 1 6 8h1l2-10 5-3 4 1v15l-1 13 7 8 1-1 1-9 5-3 5 2 1 1v8l-3 15 4 8 8 11 2 2h5l3-4 4-21-4-7-9-12v-5l4-3 5 1 4 6 4 2v-14l-12-17 1-5 5-3 10 10 2-11z" fill="#249FC8"/>
<path transform="translate(784,1011)" d="m0 0 5 1 5 4 9 11 6 9 4 11 1 5v13l-4 13-7 12-11 12-7 7-16 11-16 9-20 9-28 10-29 8-23 5-31 4-30 3-18 1h-42l-39-3-13-3-7-6-5-10v-10l7-8 5-4h15l21 2 20 1h36l35-2 34-4 25-5 36-9 19-7 21-9 18-10 12-9 10-9 7-11 3-8 1-9-2-10-4-8-3-5z" fill="#FFCE11"/>
<path transform="translate(1318,836)" d="m0 0h23l18 3 18 6 3 2-1 5-14 28-5-1-15-5-5-1h-17l-6 2v9l3 3 12 5 18 6 13 7 11 9 6 9 4 12v13l-3 12-5 10-6 7-11 7-13 5-14 3h-30l-15-3-13-5-11-6-6-5 1-4 17-28 2-3 4 2 11 7 12 5 8 2 9-1 5-3 3-4-1-7-8-5-21-9-12-7-10-8-7-10-3-10v-12l3-12 5-9 8-8 8-5 13-5z" fill="#249FC8"/>
<path transform="translate(1655,836)" d="m0 0h24l18 3 18 6 4 2-2 5-13 26-4 2-18-6-5-1h-16l-5 3-1 2v6l5 4 32 12 12 7 8 7 6 10 3 8 1 5v10l-3 13-6 11-8 8-12 7-13 4-10 2h-30l-15-3-13-5-11-6-5-4v-5l6-10 10-17 2-3 4 1 16 9 11 4 11 1 8-4 3-4v-6l-5-4-25-11-12-7-10-8-7-10-3-10v-15l4-12 6-8 5-5 11-7 15-5z" fill="#249FC8"/>
<path transform="translate(989,836)" d="m0 0h22l16 3 14 5 8 5-1 6-12 23-3 6-6-2-11-3h-15l-11 4-9 8-5 9-2 6-1 8 2 11 4 9 7 8 8 5 12 3 11-1 13-4 5 1 8 18 7 15-6 4-21 7-10 2h-24l-16-4-16-8-12-9-9-9-9-13-6-14-2-9v-23l4-15 7-14 8-10 10-10 14-9 11-5z" fill="#249FC8"/>
<path transform="translate(647,903)" d="m0 0h17l16 4 10 5 13 12 8 14 4 13 1 14-2 10-5 13-7 10-5 6-11 8-9 4-9 2-14 1-13-2-11-4-10-7-8-8-8-13-4-9-1-5v-20l4-13 6-11 11-12 11-7 11-4z" fill="#FFCE11"/>
<path transform="translate(560,627)" d="m0 0 4 1 10 10 8 7 15 14 8 8 8 7 7 7 8 7 8 8 8 7 10 10 8 7 11 11 8 7 16 15 13 12 10 10 8 7 9 9 8 7 31 29 10 10 8 7 9 9 8 7 7 7 8 7 7 7 8 7 11 11 4 3v2l4 2 8 8 7 8 10 10-1 2-21 1-91-1-1-20 1-1 66-1-3-5-13-11-7-7-8-7-15-15-8-7-9-9-8-7-5-4v-2l-4-2-11-11-8-7-9-9-8-7-11-11-8-7-17-16-13-12-9-9-8-7-8-8-8-7-8-8-8-7-8-8-8-7-9-9-8-7-13-13-8-7-5-5-5-6-8-10 1-5z" fill="#FFCE11"/>
<path transform="translate(443,728)" d="m0 0h8l4 5 1 9-10 10-10 8-15 13-14 12-10 9-14 11-12 11-11 9-10 9-11 9-9 8-11 9-10 9-11 9-11 10-14 11-3 2-1 3h60l2 1-1 20h-114v-3l16-15 11-10 8-7 10-9 11-9 15-13 13-11 11-9 14-12 11-9 15-13 11-9 10-9 11-9 10-9 10-8 26-22 12-10z" fill="#249FC8"/>
<path transform="translate(334,1025)" d="m0 0h1v7l-3 8-1 10 2 10 6 10 9 10 13 9 16 8 20 8 14 4 33 8 11 7 6 7 1 3v9l-3 5-5 4-8 4h-10l-30-7-27-9-20-9-15-9-12-9-12-12-8-16-2-6v-17l5-15 8-11 9-10z" fill="#249FC8"/>
<path transform="translate(1460,836)" d="m0 0h22l16 4 10 5 9 7 3 1v-11l2-2h48l1 1 1 40v88l-1 17-6-4-11-1-5-6 3-4 3-6 4-3 2-4 1 4h2l2 3 3-1v-103h-3l-1 5-2 13v10l-2 13-4-2-2-7-1-10-1-6-2-6-3-3-6-2h-6l-7 5-5 2-2 4-3 1-1 2-1 1h-2l-1-4-4-2-9-3-8-1h-15l-4 1h-5v2l-4 1h-4l2-5-5 1v-2l-3-1v-1l7-2v-3l-14 2-11 8-7 2-2 5-6 3-4 4-1 4-5 3-3-1-1-3 3-6 4-11 1-4-1-1-4 4 2-5 8-10 11-9 14-7z" fill="#249FC8"/>
<path transform="translate(1121,836)" d="m0 0h22l16 4 10 5 10 7 2 1v-12l2 1v2h10l9 3 18 1 5 4v12l-1 1-1 11-3 8-5-4v-8l-4-1-2-4-8-2h-5l-4 1-7 1v1l1 2-3 1-1 6h-3l-1 3h-3l-2-4-10-4-16-2-15 1h-3l-1 2h-3l2-5-9 3-3-2v-2l7-1 4-3-4-1h-9l-12 9-8 4h-2l-2 5-7 4-1 2h-2l-1 9 1 4-2 5-5 1 1-3 2-2 1-3-1-2h-4l-1-4 3-9 1-4v-4l3-1v-2h2l-1-6-5 4 2-4 9-11 12-9 11-5z" fill="#249FC8"/>
<path transform="translate(1484,879)" d="m0 0 12 1 11 5 9 8 5 10 1 5v10l-2 9-5 9-7 7-11 5-5 1h-11l-12-4-9-7-6-12-1-4v-16l4-10 6-8 9-6z" fill="#FEFEFE"/>
<path transform="translate(1146,879)" d="m0 0 11 1 10 4 10 9 5 10 1 5v11l-3 10-6 9-7 6-9 4-5 1h-10l-13-4-7-5-6-9-3-9v-16l3-8 4-6 7-7 8-4z" fill="#FEFEFE"/>
<path transform="translate(1277,938)" d="m0 0 4 2 11 7 12 5 8 2 9-1 5-3 4-4-1 4-4 4h-3l3 3 4-2 4 1 1 4-1 3-4 2-4 4h-2v5l5 1 1 4-7 1v4h6l1 3-2 3 5 1v1h-30l-15-3-13-5-11-6-6-5 1-4 17-28z" fill="#249FC8"/>
<path transform="translate(549,637)" d="m0 0 4 1 8 10 1 6-22 18-10 9-14 11-11 10-14 11-14 12-5 3-7-1-4-5-2-4 1-4 5-5 12-11 11-9 10-9 11-9 10-9 11-9 14-12z" fill="#249FC8"/>
<path transform="translate(983,877)" d="m0 0 7 1 2 4-8 6-7 9-3 9-1 8 2 11 4 9 3 6 5 5 2 1v2l-3 2-4-1-5-5v-2l-5-1v-2l-2-1 1-2h-2l-2-5-2-13-2-5v-6l1-1-1-2 2-5-6 1v2h-2v5l2 4-1 2h-2v9l2 10 1 1 1 12 5 10 3 15-10-2-7-5-7-8-4-4v-2h-2l-1-7-4-9-1-11 1 2h2v-13l2-7 8-14 3-6 8-6 2 1-2 10-3 6 5 1 3-2 7 2v-2l-2-1 4-5 4-4h2l2-5z" fill="#1F84B8"/>
<path transform="translate(1320,923)" d="m0 0h7l6 3 4 3 3-3 8 6 9 4 3 5v3h4v15l3 4 3-1 1 2 4-2-1 4 2-1v5l-6 7-11 7-13 5-8 2h-30v-1l19-1v-3-1l-5-1v-4l6-2-1-2-6-1 2-1v-5l4-2 6-7v-4l-6 1-2 1-3-2v-2l5-1 2-4v-8l-5-5-12-6 1-3-2-3 9 1z" fill="#1F84B8"/>
<path transform="translate(1103,898)" d="m0 0h2v16l-1 4 3 4 3 11 2 7 3 4v2l5 2 4 3 4 2h8l11 4h6l3-2 8-2v-2l6-1-2-1v-2h3v-2l4-1 7-2-1 4-3 4v5l1 4-3 4h-3v2l-4 2v2l-6 4h-3v2h-2v2l-10 4-4 1-1 3-2 2 1 3h-14l18 1v1h-24l-9-2v-5l2-2-2-1 5-2-1-2 4-1 2 1 1-4 4-1 4 1 1-2h3l1-2h-6l-3-3-1-4h-3l-5 2-5-1-5-5 2-1-2-5-4-5-4-8-2-6v-5l-3-1-2-11v-7l2-4h2l1-5z" fill="#249FC8"/>
<path transform="translate(1442,899)" d="m0 0 3 1-1 3 2 1-2 10 2 10 5 16 4 4v2l2 1v4l4-1 5 3 14 3v3h7l-2-2h8l4-3 6-1 1-2 3-2 1-3 8-7 5-1 2 5-4 7v9l-1 2h-2v2l-7 3v4h-5l-1 4-5 1v2l-12 4-6 4h-9l-6-1v-2l-2-1h2v-2h-9v-3l3-2h5l1-5-6-1-4-1-1-4-3-2-1-7-9-8-5-15-3-11-1-8 1-7h3l2-4z" fill="#249FC8"/>
<path transform="translate(1620,885)" d="m0 0 3 3 2 3 1-2h6l1 6-2 2 5 1 2 2 2 6 1 9h2l1 6 10 1 9 2v2l5-1 5 1h3l10 8 10 10 1 3-3 12-3 5-6 1v2l-5 1-1 2-1-4 2-3h-2l-3 2h-4l2-5 1-4-6-2 1-3h-2l1-10-6-5-25-11-12-7-10-8-7-10-2-5v-7l4 3 5 1 2 3 3-1z" fill="#1F84B8"/>
<path transform="translate(1546,1033)" d="m0 0h8l10 5 4 6 1 3v10l-4 8-7 5-3 1h-10l-8-4-5-8-1-9 2-7 5-6z" fill="#FEFEFE"/>
<path transform="translate(1203,1033)" d="m0 0h8l7 3 7 8 1 3v11l-4 7-7 5-3 1h-10l-6-3-6-7-1-3v-13l4-6 7-5z" fill="#FEFEFE"/>
<path transform="translate(1107,1028)" d="m0 0h12l8 3 5 5 1 3v9l-6 7-6 2 3 5 7 9 2 5-6-1-5-5-8-11-6-2v19h-5v-47z" fill="#1F84B8"/>
<path transform="translate(1598,1028)" d="m0 0h14l9 3 5 5 2 8-3 7-6 5-4 3 11 13 1 4-6-1-8-9-6-8-5-1v19l-5-1v-46z" fill="#1F84B8"/>
<path transform="translate(1655,836)" d="m0 0h24l18 3 18 6 4 2-2 5-2 4-3 1-2-1v-3h-2v-2l-13-3-26-4-18 1-16 6-3 2-6 2h-3l-6 3-2 5v4l-4 1-1-4 3-4 2-5 5-5 11-7 15-5z" fill="#1F86B9"/>
<path transform="translate(1318,836)" d="m0 0h23l18 3 10 3 2 5h-2v2l-21-3-16-2h-10l-10 1-7 3h-2l-9 3-6 1-6 5-1 2h-2v2h-2v2l-2 1 1 11-2 2h-3l-1 2-1-1v-10l6-11 8-8 8-5 13-5z" fill="#1F86B9"/>
<path transform="translate(1121,836)" d="m0 0h22l16 4 10 5 10 7v2h2v2l2 1-5 1h-9l-9-5-2-4-9-2-4-2-11-2-17 2-17 6-5 1-4 3h-3l-1 2-2-4 13-9 12-5z" fill="#1F86B9"/>
<path transform="translate(1460,836)" d="m0 0h22l16 4 10 5 9 7 3 2v3l-3 1-7-1-4-1-7-4v-2l-10-3-16-5-16 2-9 4-4 1-11 4-4 1-10 10-2 1 1-5 5-5 9-8 14-7z" fill="#1F86B9"/>
<path transform="translate(1444,1027)" d="m0 0h2l13 33 5 12v4l-5-1-5-11h-20l-5 12h-5l1-5 14-34z" fill="#1F84B8"/>
<path transform="translate(989,836)" d="m0 0h22l16 3 14 5 7 4v4h-4l-1 2-14-5-3-1h-6l-7-3-14-1h-10l-10 3-7 2-12 3-6 3-3-1 4-5 15-8 13-4z" fill="#1F86B9"/>
<path transform="translate(1203,1028)" d="m0 0h9l8 3 6 5 5 10v13l-5 9-6 5-7 3h-12l-8-4-5-5-5-10v-10l4-9 7-7zm0 5-8 4-5 6-1 2v13l3 6 7 6 3 1h10l6-3 5-5 3-5v-11l-3-6-8-7-4-1z" fill="#1F84B8"/>
<path transform="translate(1546,1028)" d="m0 0h9l8 3 6 5 5 10v12l-3 7-5 6-10 5h-11l-8-3-7-7-4-10v-8l4-10 9-8zm0 5-8 4-6 8-1 7 2 9 4 6 8 4h10l8-4 4-5 2-5v-10l-4-8-8-5-3-1z" fill="#1F84B8"/>
<path transform="translate(580,976)" d="m0 0h7l1 3-4 7-9 8-10 6-13 4-13 1-1-2 4-6 13-11 16-8z" fill="#FFCE11"/>
<path transform="translate(633,1032)" d="m0 0h5l1 2-1 14-4 16-6 11-7 9-4 1-1-1 1-21 5-15 6-11z" fill="#FFCE11"/>
<path transform="translate(600,1009)" d="m0 0h4v7l-7 13-9 10-7 6-12 7h-3l1-7 8-16 11-12z" fill="#FFCE11"/>
<path transform="translate(669,1025)" d="m0 0 5 1 6 9 7 15 2 8v20l-2 1-5-5-6-9-5-11-3-10-1-7v-9z" fill="#FFCE11"/>
<path transform="translate(437,945)" d="m0 0 9 1 6 5 3 7-1 6-6 8-5 2-9-1-7-6-2-4 1-9 6-7z" fill="#FEFEFE"/>
<path transform="translate(539,925)" d="m0 0h24l16 6 10 6 3 4-2 4-22-1-12-4-15-8-2-2z" fill="#FFCE11"/>
<path transform="translate(688,843)" d="m0 0h4v10l-1 13-4 12-8 14-3 4-4-1-1-2v-15l3-13 4-9 6-9z" fill="#FFCE11"/>
<path transform="translate(568,874)" d="m0 0 6 2 16 9 7 7 10 14 1 7h-7l-13-7-7-6-9-12-5-9z" fill="#FFCE11"/>
<path transform="translate(620,844)" d="m0 0 5 1 7 9 5 10 3 14v17l-4 2-7-8-5-12-3-15z" fill="#FFCE11"/>
<path transform="translate(705,1008)" d="m0 0h6l13 9 8 9 7 11 4 9v4l-6-1-12-8-9-9-4-7-7-13z" fill="#FFCE11"/>
<path transform="translate(737,876)" d="m0 0h4l-1 5-9 14-9 10-11 7-5 2-5-1v-5l8-13 10-10 15-8z" fill="#FFCE11"/>
<path transform="translate(726,977)" d="m0 0h15l13 4 13 7 9 9v3l-19-1-12-4-13-8-5-5z" fill="#FFCE11"/>
<path transform="translate(1380,1028)" d="m0 0h10l8 4 7 7 1 5-6-2-7-6-5-2h-7l-8 4-4 5-2 6 1 10 3 5v2l8 4h11l9-6 4-4h2l-1 6-5 6-9 4h-12l-10-6-5-7-2-6v-9l4-10 9-8z" fill="#1F84B8"/>
<path transform="translate(1570,860)" d="m0 0h1l1 21v88l-1 17-6-4-11-1-5-6 3-4 3-6 4-3 2-4 1 4h2l2 3 3-1v-103z" fill="#25A0C9"/>
<path transform="translate(761,924)" d="m0 0h6l-1 5-8 7-10 5-9 3-16 1-1-5 6-5 16-8 8-2z" fill="#FFCE11"/>
<path transform="translate(1709,860)" d="m0 0h2l-1 6-7 13-3 1-18-6-5-1h-16l-6 2-3 3-1 3h-5l3-10 4-5 12-2 2-1 8 2 1-2 8 5 4 2v3l3-1 2 1v-2l7-1 5-3 3-6z" fill="#1F86B9"/>
<path transform="translate(1073,1028)" d="m0 0h9l1 3-1 2-22 1v15l22 1-1 5-21 1-1 19-4 1-1-1v-46z" fill="#1F84B8"/>
<path transform="translate(1330,863)" d="m0 0 13 3 2 1v2l5 2v2l7 1 8 3v3l-5-1-15-5-5-1h-17l-6 2v9l3 3 6 3v2h-11l-1-7-3 1-3-5v-6l3-6h3l1-3 11-2z" fill="#1F87BA"/>
<path transform="translate(1715,963)" d="m0 0 1 3-6 8-8 7-12 6-6 2-16 2h-20v-1l18-1 2-1-1-2 9-4 5-3 9-2 5-3 4-1 9-6 4-1z" fill="#1F86B9"/>
<path transform="translate(1522,840)" d="m0 0h48l1 1v10l-1 2-6-2-1-3-17 1-16-3-5 1-3-2-1-4z" fill="#1F87BA"/>
<path transform="translate(1604,1033)" d="m0 0h10l6 3 3 6-1 5-4 4-6 2-9-1-1-1v-15z" fill="#FEFEFE"/>
<path transform="translate(1109,1033)" d="m0 0h10l7 3 2 3v8l-4 4-9 2-7-1v-18z" fill="#FEFEFE"/>
<path transform="translate(1485,1029)" d="m0 0h5l1 42h16v4l-2 1h-20l-1-32v-14z" fill="#1F85B8"/>
<path transform="translate(1695,904)" d="m0 0 7 2 9 7 6 9 2 10v2l-4-1-7-8v-2h-2v-4h-3l-5-5-8-5v-2h2v-2z" fill="#1F87B9"/>
<path transform="translate(925,938)" d="m0 0 2 1 2 7 3 2v2l4 2 7 8 4 4 2 1-1 2 3-1 1 4 5 3 5 6v2l5-1 3 4-4 1-12-7-10-8-8-8-9-13-3-6z" fill="#1F87BA"/>
<path transform="translate(1357,907)" d="m0 0 3 2 7-1 7 6 4 6 1 7-1 2h-2v3l-5-1-5-10-4-5-7-6z" fill="#1F85B9"/>
<path transform="translate(1156,1028)" d="m0 0 4 1v47h-5v-47z" fill="#1F84B8"/>
<path transform="translate(1285,888)" d="m0 0 3 3 1 2 4-2 3 1-2 6 3 3v2h2v9h-5l-1-3h-3l-5-8-3-3 1-4v-2l1-2z" fill="#1F84B8"/>
<path transform="translate(1268,883)" d="m0 0 3 1 1 6h1l2 7 3 3 4 5v2l4 2 2 5 3 3 3 4-6-2-11-9-7-10-2-6z" fill="#1F87B9"/>
<path transform="translate(1444,1038)" d="m0 0 3 3 6 18h-17l3-11z" fill="#FEFDFC"/>
<path transform="translate(1220,959)" d="m0 0h1v6h2v5h2l1 7-4 4h-7l-3-3v-2h-3v-2l4-3 1-4z" fill="#25A0C9"/>
<path transform="translate(1184,971)" d="m0 0h5l2 4 2 2-3 6-3 3 41 1v1h-46l-1-4 2-11z" fill="#249FC8"/>
<path transform="translate(1709,860)" d="m0 0h2l-1 6-7 13-3 1-14-5 1-2 4-1 2 1v-2l7-1 5-3 3-6z" fill="#208ABB"/>
<path transform="translate(976,890)" d="m0 0h5l-6 12-2 12 1 11-2-1-2-8v-13l-1-2 6-9z" fill="#25A0C9"/>
<path transform="translate(1285,1058)" d="m0 0h22l1 2-3 3h-20l-1-4z" fill="#1F87BA"/>
<path transform="translate(1402,888)" d="m0 0h1l-1 16 1 3 4-1v5l-5 3v4h-2v9h-1v-26z" fill="#249FC8"/>
<path transform="translate(310,862)" d="m0 0 2 4-12 10h-2v-6l5-5z" fill="#2089BB"/>
<path transform="translate(1455,983)" d="m0 0h6l6 2-2 1-2 4-8 1-3-1 1-4z" fill="#25A0C9"/>
<path transform="translate(285,882)" d="m0 0h2l1 3-6 7-7 2-1-4 8-7z" fill="#1F86B9"/>
<path transform="translate(1521,970)" d="m0 0 5 2 1 5-2 7-4 2v-13l-3-1z" fill="#25A0C9"/>
<path transform="translate(1456,894)" d="m0 0h2l-4 12-1 16h-1l-1-13-1-7 1-4z" fill="#25A0C9"/>
<path transform="translate(1652,884)" d="m0 0 4 1 9 6-1 2h-2v2l-6-2-2-7h-2z" fill="#2089BB"/>
<path transform="translate(1114,903)" d="m0 0 1 3-1 15-4-2 1-13z" fill="#25A0C9"/>
<path transform="translate(925,938)" d="m0 0 2 1 2 7 4 4 1 3-4 1-6-11z" fill="#218DBE"/>
<path transform="translate(1351,873)" d="m0 0 13 3 1 4-5-1-9-3z" fill="#208BBC"/>
<path transform="translate(1043,859)" d="m0 0 1 3-6 11-2-2 4-10z" fill="#2089BB"/>
<path transform="translate(1470,968)" d="m0 0 5 2v2l-3 2h-6l2-5z" fill="#1F84B8"/>
<path transform="translate(1017,949)" d="m0 0h6l-2 3-7 1-2-1v-2z" fill="#218EBE"/>
<path transform="translate(391,794)" d="m0 0h3l-2 4-6 3-2-1 5-5z" fill="#208BBC"/>
<path transform="translate(1614,859)" d="m0 0 1 4v4l-4 1-1-4z" fill="#1F84B8"/>
<path transform="translate(1614,939)" d="m0 0 4 1 2 1-1 2-6 2v-5z" fill="#2089BB"/>
<path transform="translate(1277,938)" d="m0 0 4 2-2 5-4-2z" fill="#208CBD"/>
<path transform="translate(933,873)" d="m0 0 2 2-5 8-3 1 2-6z" fill="#1F84B8"/>
<path transform="translate(1373,845)" d="m0 0 6 1 1 4-4 1-2-3z" fill="#1F88BA"/>
</svg>
